<svg xmlns="http://www.w3.org/2000/svg" viewBox="0 0 192 192" width="192" height="192" shape-rendering="crispEdges">
  <!-- Dark background -->
  <rect width="192" height="192" fill="#0a0a1a"/>

  <!-- Monitor outer shell (pixel art style) -->
  <rect x="20" y="24" width="152" height="108" rx="4" ry="4" fill="#1a1a2e"/>
  <rect x="24" y="28" width="144" height="100" fill="#0d0d1f"/>

  <!-- Screen bezel highlight (top-left pixels) -->
  <rect x="24" y="28" width="144" height="2" fill="#2a2a4a"/>
  <rect x="24" y="28" width="2" height="100" fill="#2a2a4a"/>

  <!-- Screen content area -->
  <rect x="28" y="32" width="136" height="92" fill="#0a0a1a"/>

  <!-- "OP" text rendered as pixel art blocks -->
  <!-- Letter O -->
  <!-- Top bar -->
  <rect x="38" y="54" width="28" height="8" fill="#7B68EE"/>
  <!-- Left bar -->
  <rect x="38" y="54" width="8" height="44" fill="#7B68EE"/>
  <!-- Right bar -->
  <rect x="58" y="54" width="8" height="44" fill="#7B68EE"/>
  <!-- Bottom bar -->
  <rect x="38" y="90" width="28" height="8" fill="#7B68EE"/>

  <!-- Gap between letters -->

  <!-- Letter P -->
  <!-- Vertical stem -->
  <rect x="78" y="54" width="8" height="44" fill="#7B68EE"/>
  <!-- Top bar -->
  <rect x="78" y="54" width="28" height="8" fill="#7B68EE"/>
  <!-- Middle bar -->
  <rect x="78" y="70" width="28" height="8" fill="#7B68EE"/>
  <!-- Right side top half -->
  <rect x="98" y="54" width="8" height="24" fill="#7B68EE"/>

  <!-- Monitor stand neck -->
  <rect x="84" y="132" width="24" height="16" fill="#1a1a2e"/>
  <!-- Monitor stand base -->
  <rect x="60" y="148" width="72" height="10" rx="2" ry="2" fill="#1a1a2e"/>

  <!-- Pixel art corner dots for style -->
  <rect x="32" y="36" width="4" height="4" fill="#7B68EE" opacity="0.3"/>
  <rect x="156" y="36" width="4" height="4" fill="#7B68EE" opacity="0.3"/>
  <rect x="32" y="116" width="4" height="4" fill="#7B68EE" opacity="0.3"/>
  <rect x="156" y="116" width="4" height="4" fill="#7B68EE" opacity="0.3"/>
</svg>
